<svg width="41" height="40" viewBox="0 0 41 40" fill="none" xmlns="http://www.w3.org/2000/svg">
<path fill-rule="evenodd" clip-rule="evenodd" d="M38.221 14.9092C38.2017 14.9812 38.1974 15.0536 38.2061 15.1233L22.4205 18.9433C21.6036 19.141 20.8659 18.4049 21.064 17.5896L24.8138 2.15602C25.1049 2.21989 25.3976 2.04436 25.4753 1.7541C25.5554 1.45538 25.3775 1.14813 25.0781 1.0679C24.7787 0.987679 24.471 1.16483 24.391 1.46355C24.3132 1.75382 24.4789 2.05213 24.763 2.1424L20.2935 17.3832C20.0573 18.1883 19.0504 18.4569 18.4418 17.8772L6.68114 6.67637C6.72366 6.62039 6.75613 6.55535 6.77541 6.48337C6.85545 6.18465 6.67759 5.87741 6.37818 5.79718C6.07878 5.71696 5.77112 5.89411 5.69108 6.19283C5.61104 6.49155 5.7889 6.79879 6.08831 6.87902C6.30274 6.93647 6.52131 6.86199 6.65763 6.70532L17.8782 18.4399C18.459 19.0473 18.1897 20.0521 17.383 20.2878L1.79851 24.8398C1.75879 24.636 1.60674 24.4622 1.39231 24.4047C1.0929 24.3245 0.785246 24.5016 0.705205 24.8004C0.625163 25.0991 0.803023 25.4063 1.10243 25.4866C1.40184 25.5668 1.70949 25.3896 1.78953 25.0909C1.80882 25.0189 1.81322 24.9464 1.80439 24.8766L17.5898 21.0569C18.4068 20.8591 19.1444 21.5953 18.9464 22.4106L15.1967 37.8441C14.9056 37.7802 14.6129 37.9557 14.5352 38.246C14.4551 38.5447 14.633 38.852 14.9324 38.9322C15.2318 39.0124 15.5395 38.8353 15.6195 38.5365C15.6973 38.2463 15.5316 37.948 15.2475 37.8577L19.7169 22.617C19.953 21.8119 20.9599 21.5432 21.5686 22.123L33.3293 33.3239C33.2869 33.3799 33.2544 33.4448 33.2351 33.5167C33.1551 33.8154 33.3329 34.1227 33.6323 34.2029C33.9317 34.2831 34.2394 34.106 34.3194 33.8073C34.3995 33.5086 34.2216 33.2013 33.9222 33.1211C33.7078 33.0636 33.489 33.1382 33.3528 33.2949L22.1323 21.5604C21.5514 20.9529 21.8206 19.9481 22.6274 19.7124L38.212 15.1601C38.2516 15.364 38.4038 15.5379 38.6182 15.5954C38.9176 15.6756 39.2253 15.4985 39.3053 15.1997C39.3853 14.901 39.2075 14.5938 38.9081 14.5135C38.6087 14.4333 38.301 14.6105 38.221 14.9092Z" fill="white"/>
<path fill-rule="evenodd" clip-rule="evenodd" d="M38.2194 15.1584C38.2252 15.1881 38.2334 15.2171 38.2437 15.2453C38.2455 15.25 38.2473 15.2547 38.2492 15.2594C38.2828 15.3435 38.3366 15.4191 38.4063 15.4786C38.468 15.5312 38.5421 15.5714 38.6258 15.5938C38.9253 15.674 39.2331 15.4968 39.3131 15.198C39.3932 14.8991 39.2153 14.5917 38.9157 14.5115C38.6856 14.4498 38.4506 14.5401 38.3178 14.7208C38.2777 14.7753 38.2469 14.838 38.2284 14.9073C38.2091 14.9793 38.2048 15.0518 38.2135 15.1215L22.4216 18.9431C21.6044 19.1408 20.8664 18.4044 21.0645 17.5888L24.8158 2.14903C24.9444 2.17723 25.0732 2.15879 25.1837 2.10443C25.3236 2.03561 25.4342 1.90919 25.4776 1.74695C25.5577 1.44811 25.3798 1.14074 25.0803 1.06048C24.7807 0.980222 24.473 1.15745 24.3929 1.45628C24.3494 1.61853 24.382 1.78329 24.4687 1.91286C24.5372 2.01518 24.6396 2.09556 24.765 2.13541L20.2937 17.3823C20.0575 18.1877 19.0502 18.4564 18.4413 17.8765L6.67595 6.6712C6.71849 6.61519 6.75097 6.55012 6.77026 6.47812C6.7888 6.40894 6.79351 6.3393 6.78609 6.27213C6.76144 6.04914 6.60307 5.85334 6.37288 5.79166C6.07335 5.7114 5.76558 5.88862 5.6855 6.18746C5.60543 6.4863 5.78336 6.79367 6.08289 6.87393C6.16647 6.89632 6.25068 6.89868 6.33041 6.88394C6.42067 6.86726 6.50519 6.82866 6.57654 6.77243C6.58045 6.76935 6.58432 6.76622 6.58815 6.76303C6.61114 6.7439 6.63265 6.72289 6.65244 6.70015L17.8775 18.4394C18.4585 19.0471 18.1891 20.0523 17.3821 20.2881L1.79137 24.8419C1.78561 24.8123 1.77748 24.7834 1.76713 24.7553C1.76541 24.7507 1.76363 24.746 1.76178 24.7414C1.72811 24.657 1.67421 24.5813 1.60438 24.5217C1.5427 24.4691 1.46859 24.429 1.38501 24.4066C1.08548 24.3264 0.777704 24.5036 0.697631 24.8024C0.617557 25.1013 0.795487 25.4087 1.09501 25.4889C1.3252 25.5506 1.56026 25.4602 1.6931 25.2794C1.73312 25.225 1.76386 25.1623 1.78239 25.0931C1.80169 25.0211 1.80609 24.9485 1.79725 24.8787L17.589 21.0574C18.4063 20.8596 19.1442 21.5961 18.9461 22.4117L15.1949 37.8514C15.0664 37.8232 14.9376 37.8416 14.8271 37.896C14.6872 37.9648 14.5766 38.0912 14.5331 38.2535C14.453 38.5523 14.631 38.8597 14.9305 38.9399C15.23 39.0202 15.5378 38.843 15.6179 38.5441C15.6613 38.3819 15.6288 38.2171 15.542 38.0875C15.4735 37.9852 15.3712 37.9048 15.2458 37.865L19.7169 22.6182C19.9531 21.8128 20.9605 21.544 21.5693 22.124L33.3348 33.3293C33.2924 33.3854 33.2598 33.4503 33.2405 33.5223C33.2219 33.5915 33.2172 33.6612 33.2247 33.7285C33.2494 33.9514 33.4078 34.1471 33.6379 34.2088C33.9374 34.289 34.2452 34.1118 34.3253 33.8129C34.4053 33.5141 34.2274 33.2067 33.9279 33.1265C33.8443 33.1041 33.76 33.1017 33.6802 33.1165C33.5901 33.1332 33.5058 33.1717 33.4345 33.2278C33.4306 33.2309 33.4267 33.2341 33.4228 33.2373C33.3997 33.2565 33.3781 33.2776 33.3583 33.3004L22.1333 21.5611C21.5521 20.9534 21.8215 19.9482 22.6286 19.7125L38.2194 15.1584ZM33.4125 32.7893L22.4174 21.2905C22.0397 20.8955 22.2147 20.2421 22.7394 20.0889L38.0109 15.6281C38.1344 15.7907 38.3111 15.9154 38.5243 15.9726C39.0335 16.109 39.5567 15.8077 39.6928 15.2997C39.8289 14.7916 39.5265 14.2691 39.0172 14.1327C38.508 13.9963 37.9848 14.2975 37.8487 14.8056C37.8486 14.8058 37.8486 14.806 37.8485 14.8062L22.3286 18.5619C21.7973 18.6904 21.3177 18.2117 21.4465 17.6816L25.1265 2.53529C25.4695 2.46543 25.7607 2.20907 25.8573 1.84868C25.9934 1.34064 25.691 0.818129 25.1818 0.681686C24.6725 0.545243 24.1493 0.846512 24.0132 1.35455C23.9167 1.71494 24.0407 2.08257 24.3028 2.31459L19.9165 17.2717C19.763 17.7952 19.1082 17.9699 18.7124 17.5929L7.14973 6.58059C7.1498 6.58034 7.14987 6.5801 7.14993 6.57985C7.28606 6.07181 6.98359 5.54931 6.47438 5.41286C5.96517 5.27642 5.44196 5.57769 5.30584 6.08573C5.16971 6.59377 5.47218 7.11628 5.98139 7.25272C6.19453 7.30983 6.40985 7.2902 6.59814 7.21115L17.5933 18.71C17.5933 18.71 17.5933 18.71 17.5933 18.71C17.9709 19.105 17.7959 19.7584 17.2713 19.9116L1.99984 24.3722C1.8763 24.2096 1.69965 24.085 1.48651 24.0279C0.977293 23.8914 0.454093 24.1927 0.317964 24.7007C0.181834 25.2088 0.484305 25.7313 0.993517 25.8677C1.50273 26.0042 2.02593 25.7029 2.16206 25.1948C2.16212 25.1946 2.16219 25.1944 2.16225 25.1941L17.682 21.4386C18.2132 21.31 18.6929 21.7887 18.5641 22.3189L14.8843 37.4651C14.5412 37.535 14.25 37.7913 14.1534 38.1517C14.0173 38.6598 14.3198 39.1823 14.829 39.3187C15.3382 39.4552 15.8614 39.1539 15.9975 38.6459C16.0941 38.2855 15.9701 37.9178 15.7079 37.6858L20.0941 22.7288C20.2476 22.2053 20.9024 22.0306 21.2981 22.4075L32.861 33.42C32.8609 33.4202 32.8609 33.4204 32.8608 33.4206C32.7247 33.9286 33.0272 34.4511 33.5364 34.5875C34.0456 34.724 34.5688 34.4227 34.7049 33.9147C34.8411 33.4066 34.5386 32.8841 34.0294 32.7477C33.8162 32.6906 33.6009 32.7102 33.4125 32.7893Z" fill="white"/>
</svg>
